{
  "source": "C:\\Users\\Peter\\Desktop\\stuff\\MIUN\\quantitative_research\\video_compression\\videos\\UVG\\ReadySteadyGo_1920x1080_120fps_420_8bit_YUV.y4m",
  "output": "C:\\Users\\Peter\\Desktop\\stuff\\MIUN\\quantitative_research\\video_compression\\compressed_videos\\UVG\\vp9\\4\\ReadySteadyGo_1920x1080_120fps_420_8bit_YUV_vp9.webm",
  "codec": "vp9",
  "ok": "[yuv4mpegpipe @ 000002ab99f553c0] Stream #0: not enough frames to estimate rate; consider increasing probesize\nInput #0, yuv4mpegpipe, from 'C:\\Users\\Peter\\Desktop\\stuff\\MIUN\\quantitative_research\\video_compression\\videos\\UVG\\ReadySteadyGo_1920x1080_120fps_420_8bit_YUV.y4m':\n  Duration: 00:00:05.00, start: 0.000000, bitrate: 2985989 kb/s\n  Stream #0:0: Video: rawvideo (I420 / 0x30323449), yuv420p(progressive), 1920x1080, 120 fps, 120 tbr, 120 tbn\n[out#0/webm @ 000002ab99f59080] Codec AVOption b:a (set bitrate (in bits/s)) has not been used for any stream. The most likely reason is either wrong type (e.g. a video option with no video streams) or that it is a private option of some decoder which was not actually used for any stream.\nStream mapping:\n  Stream #0:0 -> #0:0 (rawvideo (native) -> vp9 (libvpx-vp9))\nPress [q] to stop, [?] for help\n[libvpx-vp9 @ 000002ab99f5c140] v1.15.2-100-g40561f514\nOutput #0, webm, to 'C:\\Users\\Peter\\Desktop\\stuff\\MIUN\\quantitative_research\\video_compression\\compressed_videos\\UVG\\vp9\\4\\ReadySteadyGo_1920x1080_120fps_420_8bit_YUV_vp9.webm':\n  Metadata:\n    encoder         : Lavf62.3.100\n  Stream #0:0: Video: vp9, yuv420p(tv, progressive), 1920x1080, q=2-31, 4000 kb/s, 120 fps, 1k tbn\n    Metadata:\n      encoder         : Lavc62.11.100 libvpx-vp9\n    Side data:\n      cpb: bitrate max/min/avg: 0/0/0 buffer size: 4000000 vbv_delay: N/A\nframe=    2 fps=0.0 q=63.0 size=       0KiB time=00:00:00.01 bitrate= 230.9kbits/s speed=0.032x elapsed=0:00:00.52    \nframe=    8 fps=7.8 q=53.0 size=       0KiB time=00:00:00.06 bitrate=  57.7kbits/s speed=0.0648x elapsed=0:00:01.02    \nframe=   14 fps=9.0 q=53.0 size=       0KiB time=00:00:00.11 bitrate=  33.0kbits/s speed=0.0754x elapsed=0:00:01.54    \nframe=   19 fps=9.2 q=52.0 size=       0KiB time=00:00:00.15 bitrate=  24.3kbits/s speed=0.0769x elapsed=0:00:02.05    \nframe=   25 fps=9.7 q=55.0 size=       0KiB time=00:00:00.20 bitrate=  18.5kbits/s speed=0.0808x elapsed=0:00:02.57    \nframe=   30 fps=9.6 q=55.0 size=       0KiB time=00:00:00.25 bitrate=  15.4kbits/s speed=0.0803x elapsed=0:00:03.11    \nframe=   35 fps=9.7 q=53.0 size=       0KiB time=00:00:00.29 bitrate=  13.2kbits/s speed=0.0805x elapsed=0:00:03.62    \nframe=   41 fps=9.9 q=52.0 size=       0KiB time=00:00:00.34 bitrate=  11.3kbits/s speed=0.0826x elapsed=0:00:04.13    \nframe=   46 fps=9.9 q=45.0 size=       0KiB time=00:00:00.38 bitrate=  10.0kbits/s speed=0.0822x elapsed=0:00:04.66    \nframe=   52 fps= 10 q=52.0 size=       0KiB time=00:00:00.43 bitrate=   8.9kbits/s speed=0.0836x elapsed=0:00:05.18    \nframe=   57 fps= 10 q=51.0 size=       0KiB time=00:00:00.47 bitrate=   8.1kbits/s speed=0.0832x elapsed=0:00:05.71    \nframe=   62 fps= 10 q=50.0 size=       0KiB time=00:00:00.51 bitrate=   7.4kbits/s speed=0.0829x elapsed=0:00:06.22    \nframe=   67 fps=9.9 q=40.0 size=       0KiB time=00:00:00.55 bitrate=   6.9kbits/s speed=0.0827x elapsed=0:00:06.75    \nframe=   73 fps= 10 q=51.0 size=       0KiB time=00:00:00.60 bitrate=   6.3kbits/s speed=0.0836x elapsed=0:00:07.27    \nframe=   78 fps= 10 q=52.0 size=       0KiB time=00:00:00.65 bitrate=   5.9kbits/s speed=0.0834x elapsed=0:00:07.79    \nframe=   84 fps= 10 q=53.0 size=       0KiB time=00:00:00.70 bitrate=   5.5kbits/s speed=0.0841x elapsed=0:00:08.32    \nframe=   89 fps= 10 q=53.0 size=       0KiB time=00:00:00.74 bitrate=   5.2kbits/s speed=0.0839x elapsed=0:00:08.84    \nframe=   94 fps= 10 q=53.0 size=       0KiB time=00:00:00.78 bitrate=   4.9kbits/s speed=0.0837x elapsed=0:00:09.35    \nframe=  100 fps= 10 q=54.0 size=       0KiB time=00:00:00.83 bitrate=   4.6kbits/s speed=0.0844x elapsed=0:00:09.87    \nframe=  106 fps= 10 q=55.0 size=       0KiB time=00:00:00.88 bitrate=   4.4kbits/s speed=0.085x elapsed=0:00:10.39    \nframe=  112 fps= 10 q=55.0 size=       0KiB time=00:00:00.93 bitrate=   4.1kbits/s speed=0.0855x elapsed=0:00:10.91    \nframe=  117 fps= 10 q=57.0 size=       0KiB time=00:00:00.97 bitrate=   3.9kbits/s speed=0.0853x elapsed=0:00:11.42    \nframe=  123 fps= 10 q=42.0 size=       0KiB time=00:00:01.02 bitrate=   3.8kbits/s speed=0.0858x elapsed=0:00:11.94    \nframe=  128 fps= 10 q=56.0 size=       0KiB time=00:00:01.06 bitrate=   3.6kbits/s speed=0.0856x elapsed=0:00:12.45    \nframe=  135 fps= 10 q=55.0 size=     512KiB time=00:00:01.12 bitrate=3728.3kbits/s speed=0.0867x elapsed=0:00:12.97    \nframe=  141 fps= 10 q=55.0 size=     512KiB time=00:00:01.17 bitrate=3569.6kbits/s speed=0.0871x elapsed=0:00:13.49    \nframe=  147 fps= 10 q=56.0 size=     512KiB time=00:00:01.22 bitrate=3423.9kbits/s speed=0.0874x elapsed=0:00:14.01    \nframe=  153 fps= 11 q=57.0 size=     512KiB time=00:00:01.27 bitrate=3289.7kbits/s speed=0.0877x elapsed=0:00:14.53    \nframe=  159 fps= 11 q=57.0 size=     512KiB time=00:00:01.32 bitrate=3165.5kbits/s speed=0.0881x elapsed=0:00:15.04    \nframe=  164 fps= 11 q=42.0 size=     512KiB time=00:00:01.36 bitrate=3069.0kbits/s speed=0.0878x elapsed=0:00:15.56    \nframe=  170 fps= 11 q=57.0 size=     512KiB time=00:00:01.41 bitrate=2960.7kbits/s speed=0.0881x elapsed=0:00:16.07    \nframe=  177 fps= 11 q=58.0 size=     512KiB time=00:00:01.47 bitrate=2843.6kbits/s speed=0.0889x elapsed=0:00:16.59    \nframe=  183 fps= 11 q=58.0 size=     512KiB time=00:00:01.52 bitrate=2750.4kbits/s speed=0.0891x elapsed=0:00:17.11    \nframe=  189 fps= 11 q=58.0 size=     512KiB time=00:00:01.57 bitrate=2663.1kbits/s speed=0.0893x elapsed=0:00:17.63    \nframe=  195 fps= 11 q=59.0 size=     512KiB time=00:00:01.62 bitrate=2581.1kbits/s speed=0.0895x elapsed=0:00:18.15    \nframe=  201 fps= 11 q=59.0 size=     512KiB time=00:00:01.67 bitrate=2504.1kbits/s speed=0.0897x elapsed=0:00:18.67    \nframe=  206 fps= 11 q=44.0 size=     512KiB time=00:00:01.71 bitrate=2443.3kbits/s speed=0.0894x elapsed=0:00:19.19    \nframe=  212 fps= 11 q=59.0 size=     512KiB time=00:00:01.76 bitrate=2374.1kbits/s speed=0.0897x elapsed=0:00:19.70    \nframe=  219 fps= 11 q=59.0 size=     512KiB time=00:00:01.82 bitrate=2298.2kbits/s speed=0.0902x elapsed=0:00:20.24    \nframe=  224 fps= 11 q=56.0 size=     512KiB time=00:00:01.86 bitrate=2246.9kbits/s speed=0.0899x elapsed=0:00:20.76    \nframe=  230 fps= 11 q=57.0 size=     512KiB time=00:00:01.91 bitrate=2188.3kbits/s speed=0.0901x elapsed=0:00:21.28    \nframe=  236 fps= 11 q=61.0 size=     512KiB time=00:00:01.96 bitrate=2132.7kbits/s speed=0.0902x elapsed=0:00:21.80    \nframe=  241 fps= 11 q=60.0 size=     512KiB time=00:00:02.00 bitrate=2088.5kbits/s speed=0.0899x elapsed=0:00:22.32    \nframe=  248 fps= 11 q=60.0 size=     512KiB time=00:00:02.06 bitrate=2029.5kbits/s speed=0.0904x elapsed=0:00:22.86    \nframe=  253 fps= 11 q=59.0 size=     512KiB time=00:00:02.10 bitrate=1989.4kbits/s speed=0.0902x elapsed=0:00:23.38    \nframe=  259 fps= 11 q=60.0 size=    1024KiB time=00:00:02.15 bitrate=3886.6kbits/s speed=0.0903x elapsed=0:00:23.91    \nframe=  265 fps= 11 q=59.0 size=    1024KiB time=00:00:02.20 bitrate=3798.6kbits/s speed=0.0904x elapsed=0:00:24.43    \nframe=  270 fps= 11 q=59.0 size=    1024KiB time=00:00:02.25 bitrate=3728.3kbits/s speed=0.0902x elapsed=0:00:24.95    \nframe=  276 fps= 11 q=59.0 size=    1024KiB time=00:00:02.30 bitrate=3647.2kbits/s speed=0.0903x elapsed=0:00:25.47    \nframe=  281 fps= 11 q=59.0 size=    1024KiB time=00:00:02.34 bitrate=3582.3kbits/s speed=0.0901x elapsed=0:00:25.99    \nframe=  287 fps= 11 q=59.0 size=    1024KiB time=00:00:02.39 bitrate=3507.4kbits/s speed=0.0903x elapsed=0:00:26.50    \nframe=  292 fps= 11 q=59.0 size=    1024KiB time=00:00:02.43 bitrate=3447.4kbits/s speed=0.09x elapsed=0:00:27.02    \nframe=  297 fps= 11 q=58.0 size=    1024KiB time=00:00:02.47 bitrate=3389.3kbits/s speed=0.0899x elapsed=0:00:27.53    \nframe=  303 fps= 11 q=59.0 size=    1024KiB time=00:00:02.52 bitrate=3322.2kbits/s speed=0.09x elapsed=0:00:28.05    \nframe=  308 fps= 11 q=59.0 size=    1024KiB time=00:00:02.56 bitrate=3268.3kbits/s speed=0.0899x elapsed=0:00:28.55    \nframe=  313 fps= 11 q=58.0 size=    1024KiB time=00:00:02.60 bitrate=3216.1kbits/s speed=0.0897x elapsed=0:00:29.08    \nframe=  317 fps= 11 q=59.0 size=    1024KiB time=00:00:02.64 bitrate=3175.5kbits/s speed=0.0892x elapsed=0:00:29.60    \nframe=  321 fps= 11 q=59.0 size=    1024KiB time=00:00:02.67 bitrate=3135.9kbits/s speed=0.0888x elapsed=0:00:30.13    \nframe=  323 fps= 11 q=59.0 size=    1024KiB time=00:00:02.69 bitrate=3116.5kbits/s speed=0.0877x elapsed=0:00:30.68    \nframe=  327 fps= 10 q=60.0 size=    1024KiB time=00:00:02.72 bitrate=3078.4kbits/s speed=0.0873x elapsed=0:00:31.22    \nframe=  330 fps= 10 q=60.0 size=    1024KiB time=00:00:02.75 bitrate=3050.4kbits/s speed=0.0865x elapsed=0:00:31.78    \nframe=  333 fps= 10 q=60.0 size=    1024KiB time=00:00:02.77 bitrate=3022.9kbits/s speed=0.0858x elapsed=0:00:32.33    \nframe=  336 fps= 10 q=60.0 size=    1024KiB time=00:00:02.80 bitrate=2995.9kbits/s speed=0.0852x elapsed=0:00:32.86    \nframe=  340 fps= 10 q=59.0 size=    1024KiB time=00:00:02.83 bitrate=2960.7kbits/s speed=0.0848x elapsed=0:00:33.40    \nframe=  343 fps= 10 q=60.0 size=    1024KiB time=00:00:02.85 bitrate=2934.8kbits/s speed=0.0842x elapsed=0:00:33.94    \nframe=  346 fps= 10 q=60.0 size=    1024KiB time=00:00:02.88 bitrate=2909.3kbits/s speed=0.0836x elapsed=0:00:34.47    \nframe=  349 fps= 10 q=60.0 size=    1024KiB time=00:00:02.90 bitrate=2884.3kbits/s speed=0.0831x elapsed=0:00:35.00    \nframe=  353 fps=9.9 q=60.0 size=    1024KiB time=00:00:02.94 bitrate=2851.7kbits/s speed=0.0828x elapsed=0:00:35.54    \nframe=  356 fps=9.9 q=60.0 size=    1024KiB time=00:00:02.96 bitrate=2827.6kbits/s speed=0.0822x elapsed=0:00:36.08    \nframe=  359 fps=9.8 q=47.0 size=    1024KiB time=00:00:02.99 bitrate=2804.0kbits/s speed=0.0816x elapsed=0:00:36.64    \nframe=  363 fps=9.8 q=60.0 size=    1024KiB time=00:00:03.02 bitrate=2773.1kbits/s speed=0.0813x elapsed=0:00:37.19    \nframe=  365 fps=9.7 q=61.0 size=    1024KiB time=00:00:03.04 bitrate=2757.9kbits/s speed=0.0805x elapsed=0:00:37.76    \nframe=  369 fps=9.6 q=60.0 size=    1024KiB time=00:00:03.07 bitrate=2728.0kbits/s speed=0.0803x elapsed=0:00:38.30    \nframe=  372 fps=9.6 q=61.0 size=    1024KiB time=00:00:03.10 bitrate=2706.0kbits/s speed=0.0798x elapsed=0:00:38.82    \nframe=  375 fps=9.5 q=61.0 size=    1024KiB time=00:00:03.12 bitrate=2684.4kbits/s speed=0.0794x elapsed=0:00:39.37    \nframe=  378 fps=9.5 q=61.0 size=    1024KiB time=00:00:03.15 bitrate=2663.1kbits/s speed=0.079x elapsed=0:00:39.89    \nframe=  382 fps=9.4 q=61.0 size=    1024KiB time=00:00:03.17 bitrate=2642.1kbits/s speed=0.0785x elapsed=0:00:40.44    \nframe=  384 fps=9.4 q=61.0 size=    1024KiB time=00:00:03.20 bitrate=2621.4kbits/s speed=0.078x elapsed=0:00:41.00    \nframe=  388 fps=9.3 q=61.0 size=    1536KiB time=00:00:03.23 bitrate=3891.6kbits/s speed=0.0778x elapsed=0:00:41.55    \nframe=  392 fps=9.3 q=47.0 size=    1536KiB time=00:00:03.26 bitrate=3851.9kbits/s speed=0.0776x elapsed=0:00:42.10    \nframe=  396 fps=9.3 q=61.0 size=    1536KiB time=00:00:03.30 bitrate=3813.0kbits/s speed=0.0774x elapsed=0:00:42.66    \nframe=  400 fps=9.3 q=62.0 size=    1536KiB time=00:00:03.33 bitrate=3774.9kbits/s speed=0.0772x elapsed=0:00:43.17    \nframe=  406 fps=9.3 q=48.0 size=    1536KiB time=00:00:03.38 bitrate=3719.1kbits/s speed=0.0774x elapsed=0:00:43.69    \nframe=  412 fps=9.3 q=61.0 size=    1536KiB time=00:00:03.43 bitrate=3664.9kbits/s speed=0.0776x elapsed=0:00:44.21    \nframe=  417 fps=9.3 q=61.0 size=    1536KiB time=00:00:03.47 bitrate=3621.0kbits/s speed=0.0777x elapsed=0:00:44.72    \nframe=  422 fps=9.3 q=61.0 size=    1536KiB time=00:00:03.51 bitrate=3578.1kbits/s speed=0.0777x elapsed=0:00:45.24    \nframe=  427 fps=9.3 q=48.0 size=    1536KiB time=00:00:03.55 bitrate=3536.2kbits/s speed=0.0777x elapsed=0:00:45.77    \nframe=  433 fps=9.4 q=61.0 size=    1536KiB time=00:00:03.60 bitrate=3487.2kbits/s speed=0.078x elapsed=0:00:46.28    \nframe=  438 fps=9.4 q=61.0 size=    1536KiB time=00:00:03.65 bitrate=3447.4kbits/s speed=0.078x elapsed=0:00:46.80    \nframe=  443 fps=9.4 q=60.0 size=    1536KiB time=00:00:03.69 bitrate=3408.5kbits/s speed=0.078x elapsed=0:00:47.31    \nframe=  448 fps=9.4 q=48.0 size=    1536KiB time=00:00:03.73 bitrate=3370.4kbits/s speed=0.078x elapsed=0:00:47.83    \nframe=  453 fps=9.4 q=61.0 size=    1536KiB time=00:00:03.77 bitrate=3333.2kbits/s speed=0.0781x elapsed=0:00:48.34    \nframe=  458 fps=9.4 q=61.0 size=    1536KiB time=00:00:03.81 bitrate=3296.8kbits/s speed=0.0781x elapsed=0:00:48.86    \nframe=  463 fps=9.4 q=61.0 size=    1536KiB time=00:00:03.85 bitrate=3261.2kbits/s speed=0.0781x elapsed=0:00:49.38    \nframe=  468 fps=9.4 q=61.0 size=    1536KiB time=00:00:03.90 bitrate=3226.4kbits/s speed=0.0781x elapsed=0:00:49.91    \nframe=  473 fps=9.4 q=60.0 size=    1536KiB time=00:00:03.94 bitrate=3192.3kbits/s speed=0.0782x elapsed=0:00:50.42    \nframe=  478 fps=9.4 q=59.0 size=    1536KiB time=00:00:03.98 bitrate=3158.9kbits/s speed=0.0782x elapsed=0:00:50.93    \nframe=  483 fps=9.4 q=48.0 size=    1536KiB time=00:00:04.02 bitrate=3126.2kbits/s speed=0.0782x elapsed=0:00:51.45    \nframe=  488 fps=9.4 q=60.0 size=    1536KiB time=00:00:04.06 bitrate=3094.2kbits/s speed=0.0782x elapsed=0:00:51.97    \nframe=  493 fps=9.4 q=59.0 size=    1536KiB time=00:00:04.10 bitrate=3062.8kbits/s speed=0.0783x elapsed=0:00:52.48    \nframe=  498 fps=9.4 q=59.0 size=    1536KiB time=00:00:04.15 bitrate=3032.0kbits/s speed=0.0783x elapsed=0:00:52.99    \nframe=  503 fps=9.4 q=59.0 size=    1536KiB time=00:00:04.19 bitrate=3001.9kbits/s speed=0.0783x elapsed=0:00:53.52    \nframe=  508 fps=9.4 q=57.0 size=    1536KiB time=00:00:04.23 bitrate=2972.3kbits/s speed=0.0783x elapsed=0:00:54.05    \nframe=  512 fps=9.4 q=58.0 size=    1536KiB time=00:00:04.26 bitrate=2949.1kbits/s speed=0.0782x elapsed=0:00:54.56    \nframe=  518 fps=9.4 q=59.0 size=    2048KiB time=00:00:04.31 bitrate=3886.6kbits/s speed=0.0784x elapsed=0:00:55.07    \nframe=  523 fps=9.4 q=58.0 size=    2048KiB time=00:00:04.35 bitrate=3849.5kbits/s speed=0.0784x elapsed=0:00:55.59    \nframe=  527 fps=9.4 q=46.0 size=    2048KiB time=00:00:04.39 bitrate=3820.2kbits/s speed=0.0783x elapsed=0:00:56.11    \nframe=  533 fps=9.4 q=58.0 size=    2048KiB time=00:00:04.44 bitrate=3777.2kbits/s speed=0.0784x elapsed=0:00:56.62    \nframe=  537 fps=9.4 q=55.0 size=    2048KiB time=00:00:04.47 bitrate=3749.1kbits/s speed=0.0783x elapsed=0:00:57.13    \nframe=  543 fps=9.4 q=55.0 size=    2048KiB time=00:00:04.52 bitrate=3707.7kbits/s speed=0.0785x elapsed=0:00:57.65    \nframe=  548 fps=9.4 q=55.0 size=    2048KiB time=00:00:04.56 bitrate=3673.8kbits/s speed=0.0785x elapsed=0:00:58.19    \nframe=  553 fps=9.4 q=55.0 size=    2048KiB time=00:00:04.60 bitrate=3640.6kbits/s speed=0.0785x elapsed=0:00:58.72    \nframe=  558 fps=9.4 q=55.0 size=    2048KiB time=00:00:04.65 bitrate=3608.0kbits/s speed=0.0785x elapsed=0:00:59.24    \nframe=  563 fps=9.4 q=56.0 size=    2048KiB time=00:00:04.69 bitrate=3576.0kbits/s speed=0.0785x elapsed=0:00:59.77    \nframe=  567 fps=9.4 q=55.0 size=    2048KiB time=00:00:04.72 bitrate=3550.7kbits/s speed=0.0784x elapsed=0:01:00.29    \nframe=  573 fps=9.4 q=54.0 size=    2048KiB time=00:00:04.77 bitrate=3513.6kbits/s speed=0.0785x elapsed=0:01:00.81    \nframe=  576 fps=9.4 q=54.0 size=    2048KiB time=00:00:04.80 bitrate=3495.3kbits/s speed=0.0783x elapsed=0:01:01.32    \nframe=  576 fps=9.3 q=54.0 size=    2048KiB time=00:00:04.80 bitrate=3495.3kbits/s speed=0.0776x elapsed=0:01:01.85    \nframe=  576 fps=9.2 q=54.0 size=    2048KiB time=00:00:04.80 bitrate=3495.3kbits/s speed=0.077x elapsed=0:01:02.37    \nframe=  576 fps=9.2 q=54.0 size=    2048KiB time=00:00:04.80 bitrate=3495.3kbits/s speed=0.0763x elapsed=0:01:02.89    \n[out#0/webm @ 000002ab99f59080] video:2562KiB audio:0KiB subtitle:0KiB other streams:0KiB global headers:0KiB muxing overhead: 0.184699%\nframe=  600 fps=9.5 q=50.0 Lsize=    2566KiB time=00:00:05.00 bitrate=4204.9kbits/s speed=0.0789x elapsed=0:01:03.36    \n",
  "seconds": 63.47638273239136,
  "probe_out": {}
}